<svg xmlns="http://www.w3.org/2000/svg" viewBox="0 0 400 400" width="400" height="400">
    <rect width="400" height="400" fill="#F7F8F1" rx="24"/>
    <ellipse cx="200" cy="290" rx="90" ry="25" fill="#3D4127" opacity="0.15"/>
    <!-- Beeswax Candles -->
    <!-- Candle 1 -->
    <g>
      <rect x="135" y="160" width="35" height="110" rx="6" fill="#C99A3C"/>
      <ellipse cx="152" cy="160" rx="17" ry="6" fill="#D4DE95"/>
      <path d="M 152 160 L 152 145" stroke="#3D4127" stroke-width="2"/>
      <path d="M 152 145 Q 160 130 152 120 Q 144 130 152 145 Z" fill="#636B2F"/>
    </g>
    <!-- Candle 2 (Taller) -->
    <g>
      <rect x="182" y="130" width="36" height="140" rx="6" fill="#636B2F"/>
      <ellipse cx="200" cy="130" rx="18" ry="6" fill="#BAC095"/>
      <path d="M 200 130 L 200 115" stroke="#3D4127" stroke-width="2"/>
      <path d="M 200 115 Q 208 100 200 90 Q 192 100 200 115 Z" fill="#C99A3C"/>
    </g>
    <!-- Candle 3 -->
    <g>
      <rect x="230" y="180" width="35" height="90" rx="6" fill="#BAC095"/>
      <ellipse cx="247" cy="180" rx="17" ry="6" fill="#D4DE95"/>
      <path d="M 247 180 L 247 165" stroke="#3D4127" stroke-width="2"/>
      <path d="M 247 165 Q 255 150 247 140 Q 239 150 247 165 Z" fill="#636B2F"/>
    </g>
    <text x="200" y="350" font-family="sans-serif" font-weight="bold" font-size="14" fill="#3D4127" text-anchor="middle" letter-spacing="2">BEESWAX CANDLE SET</text>
  </svg>